<svg width="120" height="40" viewBox="0 0 120 40" fill="none" xmlns="http://www.w3.org/2000/svg">
  <path d="M31.8785 11.394L32.0304 11.2152C32.881 10.4261 33.7721 10.0789 34.6937 10.1841C35.3013 10.2472 35.838 10.5103 36.3443 10.8785L34.2076 0H25.0532V3.93477L29.4076 15.1184C30.2177 13.8664 31.0278 12.6144 31.8684 11.394H31.8785Z" fill="#E53950"/>
  <path d="M0 21.1573C0.41519 21.1573 0.972152 21.1573 1.64051 21.1468C3.66582 21.1152 6.7443 21.0626 9.53924 21.4308V7.92215H13.3266V22.5671C14.5316 23.3982 15.4734 24.7133 16.3949 25.9968C18.2582 28.585 19.2 29.6055 20.6987 28.7743C21.438 27.7012 22.1468 26.5965 22.8658 25.4918V0H0V21.3256V21.1573Z" fill="#E53950"/>
  <path d="M1.67089 23.3456C0.992405 23.3561 0.425316 23.3667 0 23.3561V31.6781H9.53924V23.6507C6.8557 23.2615 3.71646 23.3035 1.67089 23.3456Z" fill="#E53950"/>
  <path d="M38.8152 13.7296C39.1797 14.2451 39.524 14.7396 39.838 15.0973C41.0531 16.707 42.319 18.3482 43.6152 19.9474L48.3645 3.93477V0H39.524L37.7215 12.2357C38.1063 12.7196 38.481 13.2351 38.8253 13.7296H38.8152Z" fill="#E53950"/>
  <path d="M78.5722 21.2204C80.1114 21.3256 81.6608 21.3677 83.2203 21.3887V17.8327H87.0076V21.3887C88.3139 21.3677 89.6101 21.3467 90.8861 21.3151C92.7696 21.273 94.643 21.2204 96.5468 21.2309V13.8453C96.5468 11.5413 94.9772 9.91057 92.7595 9.91057H83.2203V0H73.681V16.6228C75.1089 18.485 76.6177 20.3367 78.5722 21.2099V21.2204Z" fill="#E53950"/>
  <path d="M51.9493 29.1531C53.0329 29.5213 53.6709 28.7743 54.9367 26.5018C55.3215 25.8075 55.7266 25.0921 56.1823 24.5134C56.4759 24.0715 56.7696 23.5876 57.0633 23.1247L59.3519 7.93267H60.6987V17.2646C62.0354 15.1289 63.4228 12.9932 64.9417 10.9837L65.0835 10.8048L65.2759 10.6996C67.4228 9.50026 69.0126 10.6155 70.1974 12.0147V0H51.9392L47.0076 23.819C48.6278 25.6076 50.2886 27.4171 51.9595 29.1531H51.9493Z" fill="#E53950"/>
  <path d="M22.3088 30.2683L22.1772 30.4576L21.9848 30.5734C18.562 32.7196 16.324 29.6055 14.6936 27.333C14.2481 26.7122 13.7924 26.0915 13.3265 25.5444V31.6991H22.8658V29.4161C22.6734 29.7001 22.4911 29.9947 22.2987 30.2788L22.3088 30.2683Z" fill="#E53950"/>
  <path d="M109.144 23.293L107.271 23.314C104.719 23.3456 102.157 23.3771 99.605 23.4192V27.7538C99.605 30.0578 101.175 31.6886 103.443 31.6886H120V23.7664H109.154V23.293H109.144Z" fill="#E53950"/>
  <path d="M103.443 0C101.175 0 99.605 1.63072 99.605 3.93477V21.1994C102.147 21.1678 104.699 21.1257 107.251 21.0942L109.154 21.0731V7.96423H118.521L120 3.93477V0H103.443Z" fill="#E53950"/>
  <path d="M90.9367 23.535C89.6405 23.5666 88.3241 23.5876 87.0076 23.6086V23.7664H83.2203V23.5981C81.5595 23.5771 79.8987 23.5245 78.2481 23.4087H78.076L77.9241 23.3351C76.2329 22.6302 74.8658 21.3993 73.681 20.0526V31.6886H92.7696C94.9874 31.6886 96.557 30.0158 96.557 27.7012V23.4508C94.6937 23.4508 92.8101 23.4929 90.9468 23.535H90.9367Z" fill="#E53950"/>
  <path d="M69.681 14.9395C68.2127 12.7827 67.4937 12.0778 66.4608 12.5408C64.4557 15.213 62.6532 18.1483 60.9114 20.9995C60.8405 21.1152 60.7696 21.2309 60.6987 21.3467V31.6886H70.1975V15.676C70.0253 15.434 69.8532 15.192 69.6911 14.9395H69.681Z" fill="#E53950"/>
  <path d="M52.4759 31.4677C52.0101 31.4677 51.5038 31.3624 50.9367 31.1205L50.7443 31.0363L50.6025 30.889C49.1949 29.4371 47.8177 27.9327 46.4506 26.4387L46.1772 27.7538V31.6886H55.7671L56.243 28.5429C55.3924 29.9632 54.2379 31.4782 52.4759 31.4782V31.4677Z" fill="#E53950"/>
  <path d="M38.2076 16.5177C37.8734 16.1389 37.4886 15.5919 37.0937 15.0237C36.2937 13.8875 35.3013 12.4672 34.4709 12.3725C34.3696 12.3725 34.0557 12.3304 33.5291 12.7828C32.4456 14.3504 31.4025 15.9601 30.3696 17.5908L32.9317 24.1663L31.7063 27.7434V31.6781H40.1114L42.8456 22.4514C41.2152 20.484 39.6456 18.443 38.1873 16.5072L38.2076 16.5177Z" fill="#E53950"/>
  <path d="M0.83038 37.7695H2.91646V39.9999H4.9924V33.3718H2.91646V36.1073H2.07595V33.3718H0V36.9279C0 37.4118 0.344304 37.759 0.83038 37.759V37.7695ZM7.93924 37.012L8.13165 35.0447H8.36456L8.55696 37.012H7.94937H7.93924ZM6.51139 33.3718L5.57975 39.1793V39.9999H7.6557L7.78734 38.6638H8.69873L8.82025 39.9999H10.9063V39.1793L9.97468 33.3718H6.50127H6.51139ZM12.3241 33.3718C11.8278 33.3718 11.4835 33.7085 11.4835 34.1925V39.1688C11.4835 39.6528 11.8278 39.9894 12.3241 39.9894H15.9494V38.3377H13.5797V35.0341H15.6253L15.9494 34.1925V33.3718H12.3241ZM17.4785 35.0341V39.9999H19.5646V35.0341H20.5671L20.9013 34.1925V33.3718H16.2329V35.0341H17.4785ZM23.4532 35.7706V33.3613H21.3772V39.9894H23.4532V37.4223H24.2937V39.9894H26.3696V33.3613H24.2937V35.7706H23.4532ZM29.3063 37.0015L29.4987 35.0341H29.7316L29.9241 37.0015H29.3165H29.3063ZM27.8785 33.3613L26.9468 39.1688V39.9894H29.0228L29.1544 38.6533H30.0658L30.1873 39.9894H32.2734V39.1688L31.3418 33.3613H27.8684H27.8785ZM34.8456 35.0131H35.6759V36.2545H34.8456V35.0131ZM37.762 33.3613H33.5899C33.0937 33.3613 32.7494 33.7085 32.7494 34.1925V36.7806C32.7494 37.1067 32.9924 37.4539 33.3063 37.5381L32.6582 39.1688V39.9894H34.7038L35.2608 37.9168H35.6759V39.9894H37.762V33.3613ZM44.0405 33.3613C43.5443 33.3613 43.2 33.698 43.2 34.182V39.1583C43.2 39.6422 43.5443 39.9789 44.0405 39.9789H47.6658V38.3271H45.2962V35.0236H47.3418L47.6658 34.182V33.3613H44.0405ZM50.6937 35.7706H50.319V33.3613H48.2329V39.9894H50.319V37.4223H50.6937L51.2608 39.9894H53.3367V39.1688L52.4051 36.4755L53.1747 34.182V33.3613H51.2L50.6937 35.7706ZM56.8203 35.0341V38.3377H55.9899V35.0341H56.8203ZM58.0658 39.9999C58.562 39.9999 58.9063 39.6633 58.9063 39.1793V34.203C58.9063 33.719 58.562 33.3824 58.0658 33.3824H54.7342C54.238 33.3824 53.8937 33.719 53.8937 34.203V39.1793C53.8937 39.6633 54.238 39.9999 54.7342 39.9999H58.0658ZM61.7519 35.0341H62.5823V36.2756H61.7519V35.0341ZM63.8278 37.9273C64.3241 37.9273 64.6684 37.5802 64.6684 37.0962V34.1925C64.6684 33.7085 64.3241 33.3718 63.8278 33.3718H59.6557V39.9999H61.7418V37.9379H63.8177L63.8278 37.9273ZM67.2203 37.0015L67.4127 35.0341H67.6456L67.838 37.0015H67.2304H67.2203ZM65.7924 33.3613L64.8608 39.1688V39.9894H66.9367L67.0684 38.6533H67.9797L68.1013 39.9894H70.1873V39.1688L69.2557 33.3613H65.7823H65.7924ZM72.7595 35.0131H73.5899V36.2545H72.7595V35.0131ZM75.676 33.3613H71.5038C71.0076 33.3613 70.6633 33.7085 70.6633 34.1925V36.7806C70.6633 37.1067 70.9063 37.4539 71.2203 37.5381L70.5722 39.1688V39.9894H72.6177L73.1747 37.9168H73.5899V39.9894H75.676V33.3613ZM83.2 39.9894V35.0236H84.0304V39.9894H86.1165V33.3613H81.1139V39.9894H83.2ZM89.8025 35.0236V38.3271H88.9722V35.0236H89.8025ZM91.0481 39.9894C91.5443 39.9894 91.8886 39.6528 91.8886 39.1688V34.1925C91.8886 33.7085 91.5443 33.3718 91.0481 33.3718H87.7165C87.2203 33.3718 86.876 33.7085 86.876 34.1925V39.1688C86.876 39.6528 87.2203 39.9894 87.7165 39.9894H91.0481ZM95.1797 39.9894H96.9215L97.438 36.8121H97.6101V39.9894H99.6456V39.1688L98.9671 33.3613H96.6278L96.1215 35.9705H95.9797L95.4734 33.3613H93.1443L92.4557 39.1688V39.9894H94.5013V36.8121H94.6633L95.1797 39.9894ZM103.129 35.0236V38.3271H102.299V35.0236H103.129ZM104.375 39.9894C104.871 39.9894 105.215 39.6528 105.215 39.1688V34.1925C105.215 33.7085 104.871 33.3718 104.375 33.3718H101.043C100.547 33.3718 100.203 33.7085 100.203 34.1925V39.1688C100.203 39.6528 100.547 39.9894 101.043 39.9894H104.375ZM114.278 39.9894V38.3271H113.722V33.3613H111.646V38.3271H110.896V33.3613H108.81V38.3271H108.071V33.3613H105.985V39.9894H114.289H114.278ZM116.841 38.3377V37.0962H117.671V38.3377H116.841ZM118.927 35.4444H116.841V33.3718H114.754V39.9999H118.927C119.413 39.9999 119.757 39.6528 119.757 39.1688V36.2756C119.757 35.7916 119.413 35.455 118.927 35.455V35.4444Z" fill="#5CCCEA"/>
</svg>
