<svg width="23" height="22" viewBox="0 0 23 22" fill="none" xmlns="http://www.w3.org/2000/svg">
    <path d="M10.7463 1.13894C11.0357 0.489713 11.1804 0.1651 11.3819 0.0651375C11.5569 -0.0217125 11.7624 -0.0217125 11.9374 0.0651375C12.1389 0.1651 12.2837 0.489713 12.573 1.13894L14.878 6.3101C14.9637 6.50203 15.0064 6.59799 15.0727 6.67148C15.1312 6.7365 15.2028 6.78851 15.2827 6.82411C15.373 6.86436 15.4775 6.87539 15.6865 6.89744L21.3169 7.4917C22.0238 7.5663 22.3772 7.6036 22.5345 7.76434C22.6712 7.90395 22.7347 8.09945 22.7062 8.29275C22.6734 8.51525 22.4094 8.75312 21.8814 9.229L17.6755 13.0192C17.5195 13.1599 17.4414 13.2303 17.392 13.3159C17.3483 13.3918 17.3209 13.4759 17.3118 13.5629C17.3014 13.6612 17.3232 13.764 17.3668 13.9696L18.5415 19.508C18.689 20.2034 18.7628 20.551 18.6585 20.7503C18.5679 20.9235 18.4017 21.0442 18.209 21.0769C17.9873 21.1144 17.6794 20.9369 17.0637 20.5818L12.1593 17.753C11.9773 17.648 11.8863 17.5956 11.7895 17.575C11.7039 17.5569 11.6154 17.5569 11.5298 17.575C11.433 17.5956 11.342 17.648 11.16 17.753L6.25569 20.5818C5.63996 20.9369 5.3321 21.1144 5.11034 21.0769C4.9177 21.0442 4.7514 20.9235 4.66085 20.7503C4.55661 20.551 4.63035 20.2034 4.77784 19.508L5.95254 13.9696C5.99614 13.764 6.01794 13.6612 6.00759 13.5629C5.99843 13.4759 5.97109 13.3918 5.92734 13.3159C5.8779 13.2303 5.79985 13.1599 5.64376 13.0192L1.43799 9.229C0.909975 8.75312 0.645963 8.51525 0.613138 8.29275C0.584638 8.09945 0.64815 7.90395 0.784825 7.76434C0.942175 7.6036 1.29561 7.5663 2.00249 7.4917L7.63285 6.89744C7.84183 6.87539 7.9463 6.86436 8.03665 6.82411C8.11659 6.78851 8.18816 6.7365 8.24674 6.67148C8.31292 6.59799 8.3557 6.50203 8.44126 6.3101L10.7463 1.13894Z" fill="#5CCCEA"/>
</svg>
